<?xml version="1.0" encoding="UTF-8" standalone="no"?>
<!DOCTYPE svg PUBLIC "-//W3C//DTD SVG 1.1//EN"
 "http://www.w3.org/Graphics/SVG/1.1/DTD/svg11.dtd">
<!-- Generated by graphviz version 2.40.1 (20161225.0304)
 -->
<!-- Title: G Pages: 1 -->
<svg width="140pt" height="402pt"
 viewBox="0.00 0.00 140.00 402.00" xmlns="http://www.w3.org/2000/svg" xmlns:xlink="http://www.w3.org/1999/xlink">
<g id="graph0" class="graph" transform="scale(1 1) rotate(0) translate(4 398)">
<title>G</title>
<polygon fill="#ffffff" stroke="transparent" points="-4,4 -4,-398 136,-398 136,4 -4,4"/>
<g id="clust1" class="cluster">
<title>cluster_Global</title>
<path fill="none" stroke="#c0c0c0" d="M20,-8C20,-8 112,-8 112,-8 118,-8 124,-14 124,-20 124,-20 124,-374 124,-374 124,-380 118,-386 112,-386 112,-386 20,-386 20,-386 14,-386 8,-380 8,-374 8,-374 8,-20 8,-20 8,-14 14,-8 20,-8"/>
<text text-anchor="middle" x="66" y="-373.2" font-family="Times,serif" font-size="11.00" fill="#c0c0c0">Global</text>
</g>
<g id="clust2" class="cluster">
<title>cluster_\Veri</title>
<path fill="none" stroke="#c0c0c0" d="M28,-16C28,-16 104,-16 104,-16 110,-16 116,-22 116,-28 116,-28 116,-346 116,-346 116,-352 110,-358 104,-358 104,-358 28,-358 28,-358 22,-358 16,-352 16,-346 16,-346 16,-28 16,-28 16,-22 22,-16 28,-16"/>
<text text-anchor="middle" x="66" y="-345.2" font-family="Times,serif" font-size="11.00" fill="#c0c0c0">Veri</text>
</g>
<!-- \\Veri\\Student -->
<g id="node1" class="node">
<title>\\Veri\\Student</title>
<polygon fill="none" stroke="#000000" points="98,-330 34,-330 34,-294 98,-294 98,-330"/>
<text text-anchor="middle" x="66" y="-309.2" font-family="Courier,monospace" font-size="11.00" fill="#000000">Student</text>
</g>
<!-- \\Veri\\Workplace -->
<g id="node2" class="node">
<title>\\Veri\\Workplace</title>
<polygon fill="none" stroke="#000000" points="104.5,-276 27.5,-276 27.5,-240 104.5,-240 104.5,-276"/>
<text text-anchor="middle" x="66" y="-255.2" font-family="Courier,monospace" font-size="11.00" fill="#000000">Workplace</text>
</g>
<!-- \\Veri\\Attendance -->
<g id="node3" class="node">
<title>\\Veri\\Attendance</title>
<polygon fill="none" stroke="#000000" points="108,-222 24,-222 24,-186 108,-186 108,-222"/>
<text text-anchor="middle" x="66" y="-201.2" font-family="Courier,monospace" font-size="11.00" fill="#000000">Attendance</text>
</g>
<!-- \\Veri\\Location -->
<g id="node4" class="node">
<title>\\Veri\\Location</title>
<polygon fill="none" stroke="#000000" points="101.5,-168 30.5,-168 30.5,-132 101.5,-132 101.5,-168"/>
<text text-anchor="middle" x="66" y="-147.2" font-family="Courier,monospace" font-size="11.00" fill="#000000">Location</text>
</g>
<!-- \\Veri\\Rate -->
<g id="node5" class="node">
<title>\\Veri\\Rate</title>
<polygon fill="none" stroke="#000000" points="93,-114 39,-114 39,-78 93,-78 93,-114"/>
<text text-anchor="middle" x="66" y="-93.2" font-family="Courier,monospace" font-size="11.00" fill="#000000">Rate</text>
</g>
<!-- \\Veri\\Csv -->
<g id="node6" class="node">
<title>\\Veri\\Csv</title>
<polygon fill="none" stroke="#000000" points="93,-60 39,-60 39,-24 93,-24 93,-60"/>
<text text-anchor="middle" x="66" y="-39.2" font-family="Courier,monospace" font-size="11.00" fill="#000000">Csv</text>
</g>
</g>
</svg>
